<svg width="15" height="14" viewBox="0 0 15 14" fill="none" xmlns="http://www.w3.org/2000/svg">
<g id="Icons/icon-plus">
<path id="Vector" d="M8.57692 1.07692C8.57692 0.48125 8.09567 0 7.5 0C6.90433 0 6.42308 0.48125 6.42308 1.07692V5.92308H1.57692C0.98125 5.92308 0.5 6.40433 0.5 7C0.5 7.59567 0.98125 8.07692 1.57692 8.07692H6.42308V12.9231C6.42308 13.5188 6.90433 14 7.5 14C8.09567 14 8.57692 13.5188 8.57692 12.9231V8.07692H13.4231C14.0188 8.07692 14.5 7.59567 14.5 7C14.5 6.40433 14.0188 5.92308 13.4231 5.92308H8.57692V1.07692Z" fill="#FF7900"/>
</g>
</svg>
