<svg width="18" height="18" viewBox="0 0 18 18" fill="none" xmlns="http://www.w3.org/2000/svg">
<g id="Icons/icon-close">
<path id="Icons/icon-close_2" d="M17.6036 2.30834C18.1321 1.77976 18.1321 0.925023 17.6036 0.402062C17.075 -0.1209 16.2202 -0.126523 15.6973 0.402062L9.00562 7.09372L2.30834 0.396439C1.77976 -0.132146 0.925023 -0.132146 0.402062 0.396439C-0.1209 0.925023 -0.126523 1.77976 0.402062 2.30272L7.09372 8.99438L0.396439 15.6917C-0.132146 16.2202 -0.132146 17.075 0.396439 17.5979C0.925023 18.1209 1.77976 18.1265 2.30272 17.5979L8.99438 10.9063L15.6917 17.6036C16.2202 18.1321 17.075 18.1321 17.5979 17.6036C18.1209 17.075 18.1265 16.2202 17.5979 15.6973L10.9063 9.00562L17.6036 2.30834Z" fill="#FF7900"/>
</g>
</svg>
