<svg width="24" height="24" viewBox="0 0 24 24" fill="none" xmlns="http://www.w3.org/2000/svg">
<g id="Icons/icon-submit">
<path id="Icons/icon-submit_2" d="M13.9988 21C13.9988 21.4125 13.6988 21.75 13.3322 21.75H2.66644C2.2998 21.75 1.99983 21.4125 1.99983 21V3C1.99983 2.5875 2.2998 2.25 2.66644 2.25H9.33252V6C9.33252 6.82969 9.9283 7.5 10.6657 7.5H13.9988V12H15.9986V7.24219C15.9986 6.44531 15.7195 5.68125 15.2195 5.11875L11.4448 0.876563C10.9449 0.314063 10.2699 0 9.56167 0H2.66644C1.19573 0 0 1.34531 0 3V21C0 22.6547 1.19573 24 2.66644 24H13.3322C14.8029 24 15.9986 22.6547 15.9986 21V17.25H13.9988V21ZM20.3732 10.0781C19.9816 9.6375 19.3483 9.6375 18.9609 10.0781C18.5734 10.5188 18.5692 11.2312 18.9609 11.6672L20.5857 13.4953H8.99922C8.4451 13.4953 7.99931 13.9969 7.99931 14.6203C7.99931 15.2437 8.4451 15.7453 8.99922 15.7453H20.5857L18.9609 17.5734C18.5692 18.0141 18.5692 18.7266 18.9609 19.1625C19.3525 19.5984 19.9858 19.6031 20.3732 19.1625L23.7063 15.4125C24.0979 14.9719 24.0979 14.2594 23.7063 13.8234L20.3732 10.0734V10.0781Z" fill="#FF7900"/>
</g>
</svg>
