<svg width="21" height="24" viewBox="0 0 21 24" fill="none" xmlns="http://www.w3.org/2000/svg">
<g id="Icons/icon-lock">
<path id="Vector" d="M6.75 6V9H14.25V6C14.25 3.92812 12.5719 2.25 10.5 2.25C8.42813 2.25 6.75 3.92812 6.75 6ZM4.5 9V6C4.5 2.68594 7.18594 0 10.5 0C13.8141 0 16.5 2.68594 16.5 6V9H18C19.6547 9 21 10.3453 21 12V21C21 22.6547 19.6547 24 18 24H3C1.34531 24 0 22.6547 0 21V12C0 10.3453 1.34531 9 3 9H4.5ZM2.25 12V21C2.25 21.4125 2.5875 21.75 3 21.75H18C18.4125 21.75 18.75 21.4125 18.75 21V12C18.75 11.5875 18.4125 11.25 18 11.25H3C2.5875 11.25 2.25 11.5875 2.25 12Z" fill="#FF7900"/>
</g>
</svg>
