<svg width="16" height="16" viewBox="0 0 16 16" fill="none" xmlns="http://www.w3.org/2000/svg">
<g id="Icons/icon-pen">
<path id="Vector" d="M1.13851 11.2723L0.418986 13.7154L0.031067 15.0355C-0.0471426 15.3014 0.0248102 15.5861 0.21877 15.78C0.41273 15.9739 0.697412 16.0459 0.960196 15.9708L2.2835 15.5798L4.72677 14.8603C5.11469 14.7477 5.4682 14.5506 5.77165 14.2847C5.81545 14.2472 5.85611 14.2065 5.89678 14.1659L15.4133 4.65314C16.0984 3.96807 16.1829 2.91388 15.6698 2.13497C15.5979 2.02548 15.5103 1.91913 15.4133 1.82215L14.1807 0.58653C13.3986 -0.19551 12.1316 -0.19551 11.3496 0.58653L1.83302 10.1024C1.50766 10.4277 1.26991 10.8313 1.13851 11.2723ZM2.57757 11.6946C2.63075 11.5194 2.71835 11.3568 2.84035 11.2191C2.85912 11.2004 2.87477 11.1816 2.89354 11.1628L10.0419 4.01812L11.9815 5.95758L4.83626 13.1054C4.68923 13.2524 4.50465 13.3619 4.30444 13.4214L3.5724 13.6372L1.85804 14.1408L2.36171 12.4266L2.57757 11.6946Z" fill="#FF7900"/>
</g>
</svg>
