<svg width="20" height="22" viewBox="0 0 20 22" fill="none" xmlns="http://www.w3.org/2000/svg">
<g id="Icons/icon-user">
<path id="Vector" d="M10 11C11.5155 11 12.969 10.4205 14.0406 9.38909C15.1122 8.35764 15.7143 6.95869 15.7143 5.5C15.7143 4.04131 15.1122 2.64236 14.0406 1.61091C12.969 0.579463 11.5155 0 10 0C8.48448 0 7.03103 0.579463 5.95939 1.61091C4.88775 2.64236 4.28571 4.04131 4.28571 5.5C4.28571 6.95869 4.88775 8.35764 5.95939 9.38909C7.03103 10.4205 8.48448 11 10 11ZM7.95982 13.0625C3.5625 13.0625 0 16.4914 0 20.7238C0 21.4285 0.59375 22 1.32589 22H18.6741C19.4062 22 20 21.4285 20 20.7238C20 16.4914 16.4375 13.0625 12.0402 13.0625H7.95982Z" fill="#FF7900"/>
</g>
</svg>
