<svg width="24" height="11" viewBox="0 0 24 11" fill="none" xmlns="http://www.w3.org/2000/svg">
<g id="Icons/icon-arrow-right-left">
<path id="Vector" d="M23.6696 6.27949C24.1101 5.84848 24.1101 5.15152 23.6696 4.72509L19.1705 0.32326C18.7299 -0.107753 18.0176 -0.107753 17.5817 0.32326C17.1459 0.754273 17.1412 1.45123 17.5817 1.87766L20.1593 4.39954H3.84066L6.41828 1.87766C6.85882 1.44664 6.85882 0.749687 6.41828 0.32326C5.97774 -0.103168 5.26538 -0.107753 4.82953 0.32326L0.330404 4.72051C-0.110135 5.15152 -0.110135 5.84848 0.330404 6.27491L4.82953 10.6767C5.27006 11.1078 5.98243 11.1078 6.41828 10.6767C6.85413 10.2457 6.85882 9.54877 6.41828 9.12234L3.84066 6.60046H20.1547L17.577 9.12234C17.1365 9.55336 17.1365 10.2503 17.577 10.6767C18.0176 11.1032 18.7299 11.1078 19.1658 10.6767L23.6649 6.27491L23.6696 6.27949Z" fill="#FF7900"/>
</g>
</svg>
