<svg width="23" height="20" viewBox="0 0 23 20" fill="none" xmlns="http://www.w3.org/2000/svg">
<g id="Icons/icon-logout">
<path id="Vector" d="M22.5788 11.0089C23.1404 10.4509 23.1404 9.54464 22.5788 8.98661L16.8286 3.27232C16.267 2.71429 15.355 2.71429 14.7935 3.27232C14.2319 3.83036 14.2319 4.73661 14.7935 5.29464L18.0909 8.57143H8.62542C7.83027 8.57143 7.18785 9.20982 7.18785 10C7.18785 10.7902 7.83027 11.4286 8.62542 11.4286H18.0909L14.7935 14.7054C14.2319 15.2634 14.2319 16.1696 14.7935 16.7277C15.355 17.2857 16.267 17.2857 16.8286 16.7277L22.5788 11.0134V11.0089ZM7.18785 2.85714C7.98301 2.85714 8.62542 2.21875 8.62542 1.42857C8.62542 0.638393 7.98301 0 7.18785 0H4.31271C1.93173 0 0 1.91964 0 4.28571V15.7143C0 18.0804 1.93173 20 4.31271 20H7.18785C7.98301 20 8.62542 19.3616 8.62542 18.5714C8.62542 17.7812 7.98301 17.1429 7.18785 17.1429H4.31271C3.51755 17.1429 2.87514 16.5045 2.87514 15.7143V4.28571C2.87514 3.49554 3.51755 2.85714 4.31271 2.85714H7.18785Z" fill="#FF7900"/>
</g>
</svg>
