<svg width="20" height="24" viewBox="0 0 20 24" fill="none" xmlns="http://www.w3.org/2000/svg">
<g id="Icons/Icon-dowload">
<path id="Vector" d="M18.75 23.5C19.4427 23.5 20 22.9507 20 22.2679C20 21.585 19.4427 21.0357 18.75 21.0357H1.25C0.557292 21.0357 0 21.585 0 22.2679C0 22.9507 0.557292 23.5 1.25 23.5H18.75ZM9.08854 16.5384C9.32292 16.7848 9.65625 16.9286 10 16.9286C10.3437 16.9286 10.6719 16.79 10.9115 16.5384L17.5781 9.55625C18.0521 9.05826 18.026 8.28304 17.526 7.81585C17.026 7.34866 16.2344 7.37433 15.7604 7.86719L11.25 12.5904V8.30357V1.73214C11.25 1.04933 10.6927 0.5 10 0.5C9.30729 0.5 8.75 1.04933 8.75 1.73214V8.30357V12.5904L4.24479 7.87232C3.77083 7.37433 2.97917 7.3538 2.47917 7.82098C1.97917 8.28817 1.95312 9.06853 2.42708 9.56138L9.09375 16.5435L9.08854 16.5384Z" fill="white"/>
</g>
</svg>
