<svg width="28" height="24" viewBox="0 0 28 24" fill="none" xmlns="http://www.w3.org/2000/svg">
<g id="Icons/icon-comment">
<path id="Vector" d="M6.76475 19.2439C7.47004 18.7405 8.38309 18.6119 9.2032 18.9011C10.652 19.4153 12.2759 19.7099 14.0035 19.7099C20.8214 19.7099 25.3757 15.3983 25.3757 11.1404C25.3757 6.88239 20.8214 2.57085 14.0035 2.57085C7.18574 2.57085 2.63142 6.88239 2.63142 11.1404C2.63142 12.8543 3.30938 14.5039 4.58327 15.9179C5.05347 16.4374 5.2831 17.123 5.22842 17.8192C5.15188 18.7887 4.91678 19.6777 4.61061 20.4651C5.54006 20.042 6.31096 19.5706 6.76475 19.2493V19.2439ZM1.16617 21.4184C1.26458 21.2738 1.35753 21.1292 1.44501 20.9846C1.99174 20.0955 2.51114 18.9279 2.61502 17.6157C0.974812 15.7893 0.00708872 13.5559 0.00708872 11.1404C0.00708872 4.98639 6.27269 0 14.0035 0C21.7344 0 28 4.98639 28 11.1404C28 17.2944 21.7344 22.2807 14.0035 22.2807C11.9752 22.2807 10.0506 21.938 8.31202 21.322C7.6614 21.788 6.60073 22.4254 5.34324 22.9609C4.51767 23.3144 3.57728 23.6358 2.60409 23.8233C2.56035 23.834 2.51661 23.8393 2.47287 23.85C2.23231 23.8929 1.99721 23.9304 1.75118 23.9518C1.74024 23.9518 1.72384 23.9572 1.71291 23.9572C1.43407 23.9839 1.15524 24 0.8764 24C0.521021 24 0.203914 23.7911 0.0672297 23.4698C-0.0694544 23.1484 0.00708871 22.7842 0.25312 22.5378C0.477282 22.3129 0.679575 22.0719 0.870932 21.8148C0.963878 21.6916 1.05136 21.5684 1.13337 21.4452C1.13883 21.4345 1.1443 21.4291 1.14977 21.4184H1.16617Z" fill="#FF7900"/>
</g>
</svg>
