<svg width="10" height="12" viewBox="0 0 10 12" fill="none" xmlns="http://www.w3.org/2000/svg">
<g id="Icons/icon-trash">
<path id="Vector" d="M3.95313 1.125H6.04464C6.10491 1.125 6.16071 1.15547 6.1942 1.20938L6.6183 1.875H3.3817L3.8058 1.20938C3.83929 1.15781 3.89509 1.125 3.95536 1.125H3.95313ZM7.90625 1.875L7.08705 0.583594C6.85491 0.220313 6.46429 0 6.04688 0H3.95313C3.53571 0 3.14509 0.220313 2.91295 0.583594L2.09375 1.875H1.78795H0.714286H0.535714C0.238839 1.875 0 2.12578 0 2.4375C0 2.74922 0.238839 3 0.535714 3H0.794643L1.33036 10.6102C1.38616 11.393 2.0067 12 2.75446 12H7.24554C7.9933 12 8.61384 11.393 8.66964 10.6102L9.20536 3H9.46429C9.76116 3 10 2.74922 10 2.4375C10 2.12578 9.76116 1.875 9.46429 1.875H9.28572H8.21205H7.90625ZM8.1317 3L7.60045 10.5281C7.58705 10.725 7.4308 10.875 7.2433 10.875H2.75446C2.56696 10.875 2.41295 10.7227 2.39732 10.5281L1.8683 3H8.1317Z" fill="#FF7900"/>
</g>
</svg>
