<svg width="24" height="21" viewBox="0 0 24 21" fill="none" xmlns="http://www.w3.org/2000/svg">
<g id="Icons/icon-inbox">
<path id="Icons/icon-inbox_2" d="M2.25 14.25H6.05625L7.03594 16.2141C7.35469 16.8516 8.00156 17.25 8.71406 17.25H15.2859C15.9938 17.25 16.6453 16.8469 16.9641 16.2141L17.9437 14.25H21.75V18C21.75 18.4125 21.4125 18.75 21 18.75H3C2.5875 18.75 2.25 18.4125 2.25 18V14.25ZM21.3047 12H17.7141C17.0063 12 16.3547 12.4031 16.0359 13.0359L15.0563 15H8.94375L7.96406 13.0359C7.64531 12.3984 6.99844 12 6.28594 12H2.69531L4.99219 2.81719C5.07188 2.48438 5.37187 2.25 5.71875 2.25H18.2812C18.6234 2.25 18.9234 2.48438 19.0078 2.81719L21.3047 12ZM0 13.8703V18C0 19.6547 1.34531 21 3 21H21C22.6547 21 24 19.6547 24 18V13.8703C24 13.6266 23.9719 13.3828 23.9109 13.1437L21.1922 2.27344C20.8594 0.9375 19.6594 0 18.2812 0H5.71875C4.34062 0 3.14062 0.9375 2.80781 2.27344L0.0890625 13.1437C0.028125 13.3781 0 13.6219 0 13.8703Z" fill="#FF7900"/>
</g>
</svg>
