<svg width="135" height="59" viewBox="0 0 135 59" fill="none" xmlns="http://www.w3.org/2000/svg">
<g clip-path="url(#clip0_36_133)">
<path d="M18.8838 59L48.348 42.1317L18.8838 25.257V59Z" fill="#FF7900"/>
<path d="M113.407 0H21.5927C9.66737 0 0 9.58546 0 21.4097C0 33.234 9.66737 42.8194 21.5927 42.8194H113.407C125.333 42.8194 135 33.234 135 21.4097C135 9.58546 125.333 0 113.407 0Z" fill="#FF7900"/>
<path d="M45.6653 28.8837H40.4569V20.5793H40.4045L37.1591 28.8837H33.1546L29.9092 20.5793H29.8569V28.8837H24.6484V10.9774H30.7206L35.1438 22.0326H35.1961L39.5932 10.9774H45.6653V28.8837Z" fill="white"/>
<path d="M53.9949 21.2021C54.6492 21.2021 55.1465 21.254 55.382 21.254V21.1762C55.382 20.1122 54.8062 19.5412 53.2882 19.5412C51.4823 19.5412 50.2783 20.3457 49.7549 20.8388L48.1321 17.7766C48.9435 16.998 50.7756 15.6226 54.3089 15.6226C58.6798 15.6226 60.3025 17.9063 60.3025 21.3838V28.8837H55.6438V27.5861H55.5914C55.1727 28.157 54.3351 29.1951 51.901 29.1951C49.467 29.1951 48.106 27.8197 48.106 25.2246C48.106 22.6294 50.54 21.2021 53.9949 21.2021ZM53.9425 25.536C54.8324 25.536 55.1988 25.1986 55.382 25.0429V23.8232H54.4922C53.3667 23.8232 52.8694 24.1087 52.8694 24.7055C52.8694 25.2246 53.262 25.536 53.9425 25.536Z" fill="white"/>
<path d="M72.7086 20.3457C72.316 20.1122 71.6094 19.697 70.4577 19.697C68.7565 19.697 67.6572 20.5793 67.6572 22.2661C67.6572 24.0568 68.678 25.0169 70.4316 25.0169C71.8187 25.0169 72.4731 24.5758 72.8395 24.3682L74.0696 28.0013C73.3106 28.4944 71.8973 29.1951 69.3847 29.1951C65.3802 29.1951 62.3965 27.0671 62.3965 22.4997C62.3965 17.9323 66.0869 15.6226 69.8034 15.6226C72.2113 15.6226 73.3891 16.2714 74.2005 16.7904L72.7086 20.3457Z" fill="white"/>
<path d="M89.0929 28.8837H84.1986V27.5861H84.1462C83.649 28.2349 82.6544 29.1951 80.2988 29.1951C77.6815 29.1951 75.6924 27.7159 75.6924 24.0308V15.934H80.8484V23.1484C80.8484 24.4201 81.3719 24.965 82.3927 24.965C83.1778 24.965 83.7013 24.5498 83.9369 24.2384V15.934H89.0929V28.8837Z" fill="white"/>
<path d="M100.844 20.2679C100.242 19.8786 99.0907 19.2298 97.3895 19.2298C96.3949 19.2298 96.1594 19.3855 96.1594 19.671C96.1594 20.0084 96.5258 20.19 98.7505 20.7091C100.923 21.254 102.493 22.2661 102.493 24.7055C102.493 27.3526 100.295 29.1951 96.6305 29.1951C93.4636 29.1951 91.867 28.1311 91.1865 27.664L92.5213 24.0827C93.1495 24.5498 94.432 25.3803 96.2379 25.3803C97.2586 25.3803 97.5465 25.1467 97.5465 24.8872C97.5465 24.4979 97.154 24.3682 95.0601 23.7713C92.9925 23.2004 91.4482 22.2402 91.4482 19.8267C91.4482 17.1018 93.9347 15.6226 97.1539 15.6226C99.9021 15.6226 101.342 16.3752 102.205 16.9202L100.844 20.2679Z" fill="white"/>
<path d="M109.927 14.5846H104.771V10.5362H109.927V14.5846ZM109.927 28.8837H104.771V15.934H109.927V28.8837Z" fill="white"/>
</g>
<defs>
<clipPath id="clip0_36_133">
<rect width="135" height="59" fill="white"/>
</clipPath>
</defs>
</svg>
