<svg width="135" height="59" viewBox="0 0 135 59" fill="none" xmlns="http://www.w3.org/2000/svg">
<g id="Group">
<path id="Vector" d="M17.0582 59L46.5289 42.1317L17.0582 25.257V59Z" fill="#FF7900"/>
<path id="Vector_2" d="M113.407 0H21.5927C9.66737 0 0 9.58546 0 21.4097C0 33.234 9.66737 42.8194 21.5927 42.8194H113.407C125.333 42.8194 135 33.234 135 21.4097C135 9.58546 125.333 0 113.407 0Z" fill="#FF7900"/>
<g id="Group_2">
<path id="Vector_3" d="M42.0141 28.8836H36.8057V20.5793H36.7533L33.5079 28.8836H29.5034L26.258 20.5793H26.2056V28.8836H20.9972V10.9838H27.0693L31.4926 22.039H31.5449L35.942 10.9838H42.0141V28.8836Z" fill="white"/>
<path id="Vector_4" d="M50.3436 21.2021C50.9979 21.2021 51.4952 21.254 51.7308 21.254V21.1762C51.7308 20.1122 51.155 19.5412 49.637 19.5412C47.831 19.5412 46.6271 20.3457 46.1036 20.8388L44.4809 17.7766C45.2922 16.998 47.1243 15.6226 50.6577 15.6226C55.0286 15.6226 56.6513 17.9063 56.6513 21.3838V28.8837H51.9925V27.5861H51.9402C51.5214 28.157 50.6839 29.1951 48.2498 29.1951C45.8157 29.1951 44.4547 27.8197 44.4547 25.2246C44.4547 22.6294 46.8888 21.2021 50.3436 21.2021ZM50.2913 25.536C51.1812 25.536 51.5476 25.1986 51.7308 25.0429V23.8232H50.8409C49.7155 23.8232 49.2182 24.1087 49.2182 24.7055C49.2182 25.2246 49.6108 25.536 50.2913 25.536Z" fill="white"/>
<path id="Vector_5" d="M68.6123 10.666C72.2765 10.666 73.9516 11.9895 74.8677 12.6382L72.8262 16.6347C72.198 16.1676 71.1249 15.3112 69.0573 15.3112C66.4923 15.3112 64.5032 16.7385 64.5032 19.8008C64.5032 22.863 66.3615 24.446 68.8741 24.446C71.0464 24.446 72.2504 23.6675 72.8262 23.2263L74.7106 27.145C73.8993 27.8197 71.9363 29.1951 68.0627 29.1951C62.9851 29.1951 58.9022 26.4702 58.9022 20.0084C58.9022 13.5465 63.5086 10.666 68.6123 10.666Z" fill="white"/>
<path id="Vector_6" d="M89.7797 28.8837H84.8853V27.5861H84.833C84.3357 28.2349 83.3411 29.1951 80.9856 29.1951C78.3683 29.1951 76.3792 27.7159 76.3792 24.0308V15.934H81.5352V23.1484C81.5352 24.4201 82.0587 24.965 83.0794 24.965C83.8646 24.965 84.3881 24.5498 84.6236 24.2384V15.934H89.7797V28.8837Z" fill="white"/>
<path id="Vector_7" d="M103.789 16.479C103.134 16.0378 101.695 15.1036 99.7058 15.1036C98.2663 15.1036 97.7952 15.415 97.7952 15.934C97.7952 16.5828 98.3186 16.8423 101.25 17.7247C104.208 18.607 106.197 20.1641 106.197 23.382C106.197 26.6 103.658 29.1951 98.9468 29.1951C94.9947 29.1951 92.9793 27.8197 91.7492 26.9114L93.843 22.8111C94.6021 23.4599 96.2248 24.6536 98.4495 24.6536C99.889 24.6536 100.569 24.2903 100.569 23.6675C100.569 22.9668 100.046 22.6813 97.1932 21.7471C94.3141 20.8129 92.2727 19.3855 92.2727 16.2714C92.2727 12.8459 95.0993 10.666 99.4179 10.666C103.161 10.666 104.862 11.9116 105.778 12.5344L103.789 16.479Z" fill="white"/>
<path id="Vector_8" d="M113.577 14.5846H108.421V10.5362H113.577V14.5846ZM113.577 28.8837H108.421V15.934H113.577V28.8837Z" fill="white"/>
</g>
</g>
</svg>
