<svg width="20" height="18" viewBox="0 0 20 18" fill="none" xmlns="http://www.w3.org/2000/svg">
<g id="Thumbs">
<path id="State=Like, Style=Outline" d="M12.6484 0.111742C11.1562 -0.326125 9.59766 0.56166 9.17188 2.0962L8.94922 2.89963C8.80469 3.42185 8.54297 3.90391 8.1875 4.30562L6.18359 6.57128C5.83594 6.96496 5.86328 7.57556 6.24609 7.93308C6.62891 8.29061 7.22266 8.26249 7.57031 7.86881L9.57422 5.60315C10.125 4.9805 10.5273 4.23733 10.75 3.42989L10.9727 2.62646C11.1133 2.11629 11.6328 1.81902 12.1328 1.96364C12.6328 2.10825 12.918 2.64253 12.7773 3.15672L12.5547 3.96015C12.332 4.75956 11.9805 5.51478 11.5156 6.18965C11.3125 6.4829 11.2891 6.86855 11.4492 7.18992C11.6094 7.51129 11.9297 7.71214 12.2812 7.71214H17.5C17.8438 7.71214 18.125 8.00138 18.125 8.35488C18.125 8.62805 17.957 8.86506 17.7188 8.95745C17.4297 9.06993 17.2109 9.31899 17.1367 9.62831C17.0625 9.93763 17.1406 10.263 17.3438 10.5C17.4414 10.6125 17.5 10.7611 17.5 10.9258C17.5 11.2392 17.2812 11.5003 16.9922 11.5565C16.6719 11.6208 16.4023 11.8498 16.2891 12.1631C16.1758 12.4765 16.2266 12.834 16.4297 13.0991C16.5117 13.2076 16.5625 13.3442 16.5625 13.4968C16.5625 13.7659 16.3984 14.003 16.1641 14.0954C15.7148 14.2761 15.4727 14.7742 15.6016 15.2523C15.6172 15.3045 15.625 15.3648 15.625 15.425C15.625 15.7785 15.3438 16.0678 15 16.0678H11.1914C10.6992 16.0678 10.2148 15.9191 9.80469 15.6379L7.39453 13.9869C6.96484 13.6896 6.38281 13.8101 6.09375 14.256C5.80469 14.7019 5.92188 15.2965 6.35547 15.5937L8.76562 17.2448C9.48438 17.7389 10.3281 18 11.1914 18H15C16.3555 18 17.457 16.8913 17.5 15.5094C18.0703 15.0394 18.4375 14.3163 18.4375 13.5008C18.4375 13.32 18.418 13.1473 18.3867 12.9786C18.9883 12.5086 19.375 11.7654 19.375 10.9299C19.375 10.6687 19.3359 10.4157 19.2656 10.1787C19.7188 9.70865 20 9.06591 20 8.35488C20 6.93684 18.8828 5.78392 17.5 5.78392H13.8945C14.0781 5.36614 14.2344 4.93229 14.3555 4.49041L14.5781 3.68698C15.0039 2.15244 14.1406 0.549608 12.6484 0.111742ZM1.25 6.42666C0.558594 6.42666 0 7.00111 0 7.71214V16.7105C0 17.4215 0.558594 17.996 1.25 17.996H3.75C4.44141 17.996 5 17.4215 5 16.7105V7.71214C5 7.00111 4.44141 6.42666 3.75 6.42666H1.25Z" fill="#FF7900"/>
</g>
</svg>
